<?xml version="1.0" encoding="UTF-8"?>
<svg xmlns="http://www.w3.org/2000/svg" viewBox="0 0 302.9092965860102 99.68933471107376" preserveAspectRatio="xMidYMid meet" class="css-g5ufxp" id="effcefaa">
    <defs id="SvgjsDefs1001">
        <linearGradient id="SvgjsLinearGradient1013">
            <stop id="SvgjsStop1014" stop-color="#8f5e25" offset="0"></stop>
            <stop id="SvgjsStop1015" stop-color="#fbf4a1" offset="0.5"></stop>
            <stop id="SvgjsStop1016" stop-color="#8f5e25" offset="1"></stop>
        </linearGradient>
        <linearGradient id="SvgjsLinearGradient1017">
            <stop id="SvgjsStop1018" stop-color="#8f5e25" offset="0"></stop>
            <stop id="SvgjsStop1019" stop-color="#fbf4a1" offset="0.5"></stop>
            <stop id="SvgjsStop1020" stop-color="#8f5e25" offset="1"></stop>
        </linearGradient>
        <linearGradient id="SvgjsLinearGradient1021">
            <stop id="SvgjsStop1022" stop-color="#8f5e25" offset="0"></stop>
            <stop id="SvgjsStop1023" stop-color="#fbf4a1" offset="0.5"></stop>
            <stop id="SvgjsStop1024" stop-color="#8f5e25" offset="1"></stop>
        </linearGradient>
    </defs>
    <g id="SvgjsG1007" transform="matrix(0.9968933471107375,0,0,0.9968933471107375,-2.616845036165686,0)" fill="#fff">
        <g xmlns="http://www.w3.org/2000/svg">
            <g>
                <g>
                    <g>
                        <path d="M39.756,19.322c-0.258,9.204,6.01,13.098,8.114,14.084c0.582-1.917,1.104-6.62-0.311-15.014      C45.389,5.556,49.748,0,49.748,0C45.419,3.254,39.985,10.945,39.756,19.322z"></path>
                    </g>
                    <g>
                        <path d="M53.016,11.76c-1.279-2.254-2.488-4.385-2.769-6.55c-0.261-1.993-0.266-3.719-0.119-5.2c0,0-3.737,5.703-1.016,18.461      c1.702,7.973,1.143,12.649,0.656,14.736c2-1.109,6.609-4.446,6.699-11.623C56.518,17.928,54.734,14.791,53.016,11.76z"></path>
                    </g>
                </g>
                <g>
                    <g>
                        <path d="M21.98,38.628c6.328,6.689,13.516,5.012,15.701,4.22c-0.941-1.764-3.9-5.463-10.837-10.396      C16.23,24.907,15.388,17.902,15.388,17.902C14.626,23.26,16.222,32.54,21.98,38.628z"></path>
                    </g>
                    <g>
                        <path d="M26.013,23.908c-2.498-0.693-4.859-1.346-6.591-2.677c-1.595-1.227-2.818-2.44-3.76-3.592      c0,0,1.389,6.671,12.337,13.771c6.842,4.437,9.75,8.135,10.882,9.958c0.63-2.201,1.535-7.818-3.477-12.955      C32.85,25.79,29.374,24.833,26.013,23.908z"></path>
                    </g>
                </g>
                <g>
                    <g>
                        <path d="M23.343,63.507c9.204,0.257,13.098-6.016,14.084-8.116c-1.915-0.58-6.619-1.105-15.016,0.312      C9.575,57.871,4.022,53.511,4.022,53.511C7.274,57.84,14.964,63.275,23.343,63.507z"></path>
                    </g>
                    <g>
                        <path d="M15.786,50.245c-2.26,1.274-4.388,2.487-6.559,2.77c-1.989,0.263-3.715,0.263-5.199,0.118c0,0,5.705,3.736,18.463,1.016      c7.975-1.703,12.649-1.145,14.738-0.655c-1.114-1.999-4.448-6.611-11.622-6.699C21.948,46.745,18.813,48.523,15.786,50.245z"></path>
                    </g>
                </g>
                <g>
                    <g>
                        <path d="M64.965,23.748c-6.689,6.326-5.013,13.517-4.221,15.697c1.768-0.942,5.464-3.9,10.395-10.833      c7.545-10.613,14.553-11.459,14.553-11.459C80.334,16.392,71.055,17.99,64.965,23.748z"></path>
                    </g>
                    <g>
                        <path d="M79.688,27.781c0.692-2.502,1.344-4.861,2.677-6.595c1.223-1.595,2.438-2.817,3.589-3.758      c0,0-6.671,1.387-13.771,12.337c-4.435,6.84-8.136,9.75-9.958,10.883c2.201,0.627,7.82,1.53,12.957-3.48      C77.805,34.613,78.762,31.141,79.688,27.781z"></path>
                    </g>
                </g>
                <g>
                    <g>
                        <path d="M76.07,44.44c-9.207-0.259-13.102,6.012-14.086,8.115c1.914,0.582,6.621,1.105,15.016-0.313      c12.836-2.166,18.391,2.188,18.391,2.188C92.139,50.105,84.447,44.67,76.07,44.44z"></path>
                    </g>
                    <g>
                        <path d="M83.629,57.703c2.256-1.279,4.389-2.49,6.557-2.77c1.991-0.26,3.716-0.268,5.197-0.119c0,0-5.704-3.738-18.466-1.016      c-7.973,1.703-12.644,1.145-14.736,0.656c1.114,1.996,4.444,6.605,11.623,6.697C77.465,61.199,80.6,59.424,83.629,57.703z"></path>
                    </g>
                </g>
                <g>
                    <g>
                        <path d="M58.738,12.367c-1.891,4.583,0.518,7.748,1.389,8.645c0.662-0.851,1.823-3.119,2.718-7.619      c1.363-6.88,4.622-8.839,4.622-8.839C64.667,5.36,60.456,8.194,58.738,12.367z"></path>
                    </g>
                    <g>
                        <path d="M66.861,11.1c-0.211-1.382-0.412-2.686-0.141-3.832c0.249-1.054,0.576-1.923,0.933-2.639c0,0-2.973,2.154-4.042,9.103      c-0.67,4.336-1.844,6.585-2.49,7.542c1.221-0.177,4.18-0.973,5.598-4.569C67.442,14.875,67.148,12.957,66.861,11.1z"></path>
                    </g>
                </g>
                <g>
                    <g>
                        <path d="M27.801,15.622c1.905,4.577,5.845,5.106,7.096,5.126c-0.137-1.071-0.917-3.5-3.468-7.309      c-3.897-5.83-2.98-9.518-2.98-9.518C27.039,6.474,26.063,11.453,27.801,15.622z"></path>
                    </g>
                    <g>
                        <path d="M32.648,8.978c-1.125-0.829-2.192-1.608-2.808-2.612c-0.566-0.917-0.951-1.766-1.206-2.523c0,0-0.577,3.624,3.577,9.291      c2.598,3.545,3.353,5.964,3.574,7.101c0.736-0.99,2.268-3.645,0.729-7.189C35.727,11.234,34.165,10.088,32.648,8.978z"></path>
                    </g>
                </g>
                <g>
                    <g>
                        <path d="M10.44,44.092c4.585,1.889,7.742-0.525,8.644-1.394c-0.853-0.658-3.121-1.819-7.618-2.715      c-6.88-1.368-8.841-4.622-8.841-4.622C3.433,38.161,6.265,42.369,10.44,44.092z"></path>
                    </g>
                    <g>
                        <path d="M9.173,35.965c-1.384,0.213-2.687,0.414-3.833,0.143c-1.054-0.249-1.921-0.582-2.639-0.937c0,0,2.154,2.97,9.103,4.042      c4.338,0.671,6.584,1.844,7.545,2.489c-0.181-1.216-0.975-4.176-4.574-5.595C12.946,35.386,11.028,35.677,9.173,35.965z"></path>
                    </g>
                </g>
                <g>
                    <g>
                        <path d="M85.596,33.041c-4.576,1.904-5.109,5.842-5.129,7.096c1.072-0.138,3.498-0.92,7.311-3.466      c5.83-3.904,9.52-2.984,9.52-2.984C94.742,32.276,89.768,31.303,85.596,33.041z"></path>
                    </g>
                    <g>
                        <path d="M92.24,37.888c0.827-1.126,1.605-2.19,2.609-2.809c0.919-0.566,1.768-0.952,2.525-1.203c0,0-3.625-0.58-9.295,3.571      c-3.54,2.599-5.959,3.356-7.094,3.578c0.984,0.739,3.643,2.267,7.188,0.726C89.984,40.965,91.13,39.402,92.24,37.888z"></path>
                    </g>
                </g>
                <path d="M47.499,68.297c1.506-1.159,3.108-2.53,4.459-4.012c3.798-4.164,5.503-10.854,5.503-10.854l-0.748-0.719    c0,0-2.752,6.33-7.165,9.836c-0.727,0.576-1.505,1.119-2.295,1.629c-0.515-13.339,1.769-23.413,2.434-26.026l-1.887-0.62    c0,0-5.425,13.624-5.375,32.386C42.465,84.834,48.562,100,48.562,100l8.15-0.417c0,0-7.546-14.501-9.041-29.34    C47.606,69.588,47.55,68.941,47.499,68.297z"></path>
            </g>
        </g>
    </g>
    <g id="SvgjsG1008" transform="matrix(3.0081098547932474,0,0,3.0081098547932474,112.49594363822482,0.9513408712405145)" fill="#fff">
        <path d="M6.92 17.46 c0 -1.34 -1.06 -2.06 -2.76 -2.86 c-1.88 -0.88 -3.52 -1.88 -3.52 -4.02 c0 -1.92 1.54 -3.32 3.76 -3.32 c1.5 0 2.04 0.46 2.52 0.46 c0.22 0 0.38 -0.04 0.46 -0.3 l0.66 0 l0.14 2.76 l-0.4 -0.02 c-0.28 -0.02 -0.4 -0.1 -0.54 -0.38 c-0.5 -1.12 -1.46 -1.8 -2.56 -1.8 c-1.26 0 -1.98 0.86 -1.98 1.86 c0 1.26 0.88 1.88 2.38 2.58 c1.58 0.76 4.1 1.68 4.1 4.26 c0 2.38 -2.2 3.58 -4.06 3.58 c-1.72 0 -2.52 -0.76 -3.1 -0.76 c-0.4 0 -0.56 0.24 -0.62 0.48 l-0.72 0 l-0.18 -2.9 l0.58 0 c0.24 0 0.36 0.08 0.46 0.34 c0.46 1.2 1.64 2.08 3.18 2.08 c1.34 0 2.2 -0.82 2.2 -2.04 z M18.22 17.8 c0.24 0 0.36 0.2 0.22 0.46 c-0.56 1.12 -1.58 1.94 -3.3 1.94 c-2.64 0 -4.86 -1.88 -4.86 -5.26 c0 -3.22 2.2 -5.12 4.64 -5.12 c2.2 0 3.68 1.22 3.7 2.6 c0 0.46 -0.36 0.98 -1.08 0.98 c-0.66 0 -1.08 -0.42 -1.04 -0.94 c0.04 -0.98 -0.2 -1.96 -1.36 -1.96 c-1.58 0 -2.4 1.64 -2.4 4.3 c0 2.78 1 4.72 2.58 4.72 c1.34 0 1.98 -0.76 2.18 -1.5 c0.04 -0.16 0.14 -0.22 0.26 -0.22 l0.46 0 z M24.46 9.82 c2.3 0 4.68 1.72 4.68 5.08 c0 3.46 -2.38 5.3 -4.64 5.3 c-2.3 0 -4.68 -1.84 -4.68 -5.14 c0 -3.52 2.38 -5.24 4.64 -5.24 z M26.68 15.48 c0 -2.98 -0.96 -4.98 -2.5 -4.98 c-1.22 0 -1.9 1.3 -1.9 3.98 c0 3 0.96 5.04 2.48 5.04 c1.24 0 1.92 -1.34 1.92 -4.04 z M39.46 17.88 c0 0.7 0.44 0.86 1.22 0.74 l0 0.62 c-1.76 0.42 -2.5 1 -2.98 1 c-0.36 0 -0.54 -0.26 -0.5 -0.66 l0.2 -1.76 c-0.44 0.66 -1.56 2.46 -3.42 2.46 c-1.6 0 -2.98 -0.76 -2.98 -3.54 l0 -5.28 c0 -0.5 -0.16 -0.7 -0.56 -0.68 l-0.6 0.02 l0 -0.68 l2.92 -0.22 c0.28 -0.02 0.5 0.12 0.5 0.44 l0 6.32 c0 1.5 0.22 2.58 1.34 2.58 c1.42 0 2.38 -1.86 2.6 -2.32 l0 -5.46 c0 -0.5 -0.16 -0.7 -0.56 -0.68 l-0.6 0.02 l0 -0.68 l2.9 -0.22 c0.32 -0.02 0.52 0.12 0.52 0.44 l0 7.54 z M46.86 19.42 c-0.38 0.36 -1.12 0.72 -1.94 0.72 c-1.52 0 -2.56 -0.78 -2.56 -2.76 l0 -6.66 l-0.86 0 c-0.14 0 -0.22 -0.1 -0.22 -0.24 l0 -0.28 c0 -0.14 0.08 -0.22 0.22 -0.22 c1.36 0 1.92 -0.96 2.14 -2.72 l0.98 0 l0 2.72 l2.04 0 c0.14 0 0.22 0.08 0.22 0.22 l0 0.28 c0 0.14 -0.08 0.24 -0.22 0.24 l-2.04 0 l0 7.04 c0 0.8 0.18 1.5 1 1.5 c0.54 0 1 -0.34 1.24 -0.64 l0 0.8 z M50.08 8.4 c-0.66 0 -1.22 -0.54 -1.22 -1.2 s0.56 -1.2 1.22 -1.2 c0.64 0 1.2 0.54 1.2 1.2 s-0.56 1.2 -1.2 1.2 z M51.36 18.62 c0 0.5 0.54 0.66 1.22 0.74 l0 0.64 c-1.56 -0.06 -3.12 -0.06 -4.68 0 l0 -0.64 c0.66 -0.08 1.2 -0.24 1.2 -0.74 l0 -6.46 c0 -0.7 -0.44 -0.88 -1.22 -0.84 l0 -0.62 c1.84 -0.28 2.58 -0.94 3.06 -0.94 c0.32 0 0.54 0.16 0.54 0.52 c0 0.66 -0.12 1.4 -0.12 2.64 l0 5.7 z M62.839999999999996 19.3 l0.46 0.06 l0 0.64 c-1.54 -0.06 -3.06 -0.06 -4.6 0 l0 -0.66 l0.5 -0.04 c0.38 -0.04 0.34 -0.36 0.12 -0.7 l-1.5 -2.44 l-1.52 2.32 c-0.36 0.54 -0.1 0.78 0.3 0.82 l0.6 0.04 l0 0.66 c-1.34 -0.06 -2.68 -0.06 -4.02 0 l0 -0.64 l0.44 -0.06 c0.68 -0.12 1.34 -0.28 1.92 -1.18 l1.78 -2.76 l-2.32 -3.76 c-0.38 -0.62 -0.72 -0.84 -1.24 -0.92 l-0.48 -0.06 l0 -0.64 l4.64 0 l0 0.66 l-0.5 0.04 c-0.38 0.04 -0.34 0.36 -0.12 0.7 l1.28 2.06 l1.26 -1.94 c0.36 -0.54 0.1 -0.78 -0.3 -0.82 l-0.6 -0.04 l0 -0.66 l4.02 0 l0 0.64 l-0.42 0.06 c-0.72 0.12 -1.34 0.28 -1.92 1.18 l-1.54 2.36 l2.58 4.16 c0.38 0.62 0.64 0.84 1.18 0.92 z"></path>
    </g>
    <g id="SvgjsG1009" transform="matrix(0.4957663727218192,0,0,0.4957663727218192,113.94051760710244,71.95043322060066)" fill="#fff">
        <path d="M9.26 6.279999999999999 l-3.24 0 l0 13.14 c0 0.24 -0.08666 0.44666 -0.26 0.62 s-0.38 0.26 -0.62 0.26 c-0.25334 0 -0.46668 -0.08666 -0.64002 -0.26 s-0.26 -0.38 -0.26 -0.62 l0 -13.14 l-3.24 0 c-0.24 0 -0.44666 -0.08334 -0.62 -0.25 s-0.26 -0.37666 -0.26 -0.63 c0 -0.24 0.08666 -0.44666 0.26 -0.62 s0.38 -0.26 0.62 -0.26 l8.26 0 c0.24 0 0.44666 0.08666 0.62 0.26 s0.26 0.38 0.26 0.62 c0 0.25334 -0.08666 0.46334 -0.26 0.63 s-0.38 0.25 -0.62 0.25 z M31.677999999999997 20.3 c-1.0933 0 -2.12 -0.20666 -3.08 -0.62 s-1.7967 -0.97668 -2.51 -1.69 s-1.2767 -1.55 -1.69 -2.51 s-0.62 -1.9867 -0.62 -3.08 c0 -1.08 0.20666 -2.1 0.62 -3.06 s0.97668 -1.7967 1.69 -2.51 s1.55 -1.2767 2.51 -1.69 s1.9867 -0.62 3.08 -0.62 c1.08 0 2.1 0.20666 3.06 0.62 s1.7967 0.97668 2.51 1.69 s1.2767 1.55 1.69 2.51 s0.62 1.98 0.62 3.06 c0 1.0933 -0.20666 2.12 -0.62 3.08 s-0.97668 1.7967 -1.69 2.51 s-1.55 1.2767 -2.51 1.69 s-1.98 0.62 -3.06 0.62 z M31.677999999999997 6.279999999999999 c-0.84 0 -1.6333 0.16 -2.38 0.48 s-1.4 0.75666 -1.96 1.31 s-1 1.2033 -1.32 1.95 s-0.48 1.54 -0.48 2.38 s0.16 1.6333 0.48 2.38 s0.76 1.4 1.32 1.96 s1.2133 1 1.96 1.32 s1.54 0.48 2.38 0.48 s1.6333 -0.16 2.38 -0.48 s1.3967 -0.76 1.95 -1.32 s0.99 -1.2133 1.31 -1.96 s0.48 -1.54 0.48 -2.38 s-0.16 -1.6333 -0.48 -2.38 s-0.75666 -1.3967 -1.31 -1.95 s-1.2033 -0.99 -1.95 -1.31 s-1.54 -0.48 -2.38 -0.48 z M60.836000000000006 20.3 c-0.84 0 -1.6266 -0.16004 -2.36 -0.48004 s-1.3767 -0.75334 -1.93 -1.3 s-0.99 -1.19 -1.31 -1.93 s-0.48 -1.53 -0.48 -2.37 l0 -8.82 c0 -0.24 0.08666 -0.44666 0.26 -0.62 s0.38668 -0.26 0.64002 -0.26 c0.24 0 0.44666 0.08666 0.62 0.26 s0.26 0.38 0.26 0.62 l0 8.82 c0 0.6 0.11334 1.16 0.34 1.68 s0.53332 0.97334 0.91998 1.36 s0.84332 0.69332 1.37 0.91998 s1.0833 0.34 1.67 0.34 c0.6 0 1.16 -0.11334 1.68 -0.34 s0.97666 -0.53332 1.37 -0.91998 s0.70334 -0.84332 0.93 -1.37 s0.34 -1.0833 0.34 -1.67 l0 -8.82 c0 -0.24 0.08666 -0.44666 0.26 -0.62 s0.38 -0.26 0.62 -0.26 c0.25334 0 0.46668 0.08666 0.64002 0.26 s0.26 0.38 0.26 0.62 l0 8.82 c0 0.84 -0.16 1.63 -0.48 2.37 s-0.75666 1.3833 -1.31 1.93 s-1.2 0.98 -1.94 1.3 s-1.53 0.48 -2.37 0.48 z M84.07400000000001 20.3 c-0.36 0 -0.7 -0.07 -1.02 -0.21 s-0.59666 -0.32666 -0.83 -0.56 s-0.42 -0.51 -0.56 -0.83 s-0.21 -0.66 -0.21 -1.02 c0 -0.25334 0.08666 -0.46334 0.26 -0.63 s0.38 -0.25 0.62 -0.25 c0.25334 0 0.46668 0.08334 0.64002 0.25 s0.26 0.37666 0.26 0.63 c0 0.22666 0.08334 0.42332 0.25 0.58998 s0.36332 0.25 0.58998 0.25 c0.24 0 0.44334 -0.08334 0.61 -0.25 s0.25 -0.36332 0.25 -0.58998 l0 -12.28 c0 -0.24 0.08334 -0.44666 0.25 -0.62 s0.37666 -0.26 0.63 -0.26 c0.24 0 0.44666 0.08666 0.62 0.26 s0.26 0.38 0.26 0.62 l0 12.28 c0 0.36 -0.06666 0.7 -0.2 1.02 s-0.32 0.59666 -0.56 0.83 s-0.52 0.42 -0.84 0.56 s-0.66 0.21 -1.02 0.21 z M109.792 20.3 c-1.0933 0 -2.12 -0.20666 -3.08 -0.62 s-1.7967 -0.97668 -2.51 -1.69 s-1.2767 -1.55 -1.69 -2.51 s-0.62 -1.9867 -0.62 -3.08 c0 -1.08 0.20666 -2.1 0.62 -3.06 s0.97668 -1.7967 1.69 -2.51 s1.55 -1.2767 2.51 -1.69 s1.9867 -0.62 3.08 -0.62 c1.08 0 2.1 0.20666 3.06 0.62 s1.7967 0.97668 2.51 1.69 s1.2767 1.55 1.69 2.51 s0.62 1.98 0.62 3.06 c0 1.0933 -0.20666 2.12 -0.62 3.08 s-0.97668 1.7967 -1.69 2.51 s-1.55 1.2767 -2.51 1.69 s-1.98 0.62 -3.06 0.62 z M109.792 6.279999999999999 c-0.84 0 -1.6333 0.16 -2.38 0.48 s-1.4 0.75666 -1.96 1.31 s-1 1.2033 -1.32 1.95 s-0.48 1.54 -0.48 2.38 s0.16 1.6333 0.48 2.38 s0.76 1.4 1.32 1.96 s1.2133 1 1.96 1.32 s1.54 0.48 2.38 0.48 s1.6333 -0.16 2.38 -0.48 s1.3967 -0.76 1.95 -1.32 s0.99 -1.2133 1.31 -1.96 s0.48 -1.54 0.48 -2.38 s-0.16 -1.6333 -0.48 -2.38 s-0.75666 -1.3967 -1.31 -1.95 s-1.2033 -0.99 -1.95 -1.31 s-1.54 -0.48 -2.38 -0.48 z M138.95000000000002 20.3 c-0.84 0 -1.6266 -0.16004 -2.36 -0.48004 s-1.3767 -0.75334 -1.93 -1.3 s-0.99 -1.19 -1.31 -1.93 s-0.48 -1.53 -0.48 -2.37 l0 -8.82 c0 -0.24 0.08666 -0.44666 0.26 -0.62 s0.38668 -0.26 0.64002 -0.26 c0.24 0 0.44666 0.08666 0.62 0.26 s0.26 0.38 0.26 0.62 l0 8.82 c0 0.6 0.11334 1.16 0.34 1.68 s0.53332 0.97334 0.91998 1.36 s0.84332 0.69332 1.37 0.91998 s1.0833 0.34 1.67 0.34 c0.6 0 1.16 -0.11334 1.68 -0.34 s0.97666 -0.53332 1.37 -0.91998 s0.70334 -0.84332 0.93 -1.37 s0.34 -1.0833 0.34 -1.67 l0 -8.82 c0 -0.24 0.08666 -0.44666 0.26 -0.62 s0.38 -0.26 0.62 -0.26 c0.25334 0 0.46668 0.08666 0.64002 0.26 s0.26 0.38 0.26 0.62 l0 8.82 c0 0.84 -0.16 1.63 -0.48 2.37 s-0.75666 1.3833 -1.31 1.93 s-1.2 0.98 -1.94 1.3 s-1.53 0.48 -2.37 0.48 z M165.08800000000002 13.36 l-0.24 -0.000039062 l0.26 -0.46 l3.62 6.06 c0.08 0.14666 0.12 0.3 0.12 0.46 c0 0.24 -0.08666 0.44666 -0.26 0.62 s-0.38 0.26 -0.62 0.26 c-0.16 0 -0.31 -0.04 -0.45 -0.12 s-0.25 -0.18666 -0.33 -0.32 l-3.88 -6.5 l-0.86 0 l0 6.06 c0 0.24 -0.08666 0.44666 -0.26 0.62 s-0.38 0.26 -0.62 0.26 c-0.25334 0 -0.46668 -0.08666 -0.64002 -0.26 s-0.26 -0.38 -0.26 -0.62 l0 -14.02 c0 -0.24 0.08666 -0.44666 0.26 -0.62 s0.38668 -0.26 0.64002 -0.26 l3.52 0 c0.61334 0 1.19 0.11666 1.73 0.35 s1.01 0.55 1.41 0.95 s0.71666 0.86666 0.95 1.4 s0.35 1.1067 0.35 1.72 s-0.11666 1.1867 -0.35 1.72 s-0.55 1 -0.95 1.4 s-0.87 0.71666 -1.41 0.95 s-1.1167 0.35 -1.73 0.35 z M165.08800000000002 6.279999999999999 l-2.64 0 l0 5.3 l2.64 0 c0.36 0 0.70334 -0.07 1.03 -0.21 s0.61 -0.33 0.85 -0.57 s0.43 -0.52 0.57 -0.84 s0.21 -0.66 0.21 -1.02 s-0.07 -0.70334 -0.21 -1.03 s-0.33 -0.61 -0.57 -0.85 s-0.52334 -0.43 -0.85 -0.57 s-0.67 -0.21 -1.03 -0.21 z M187.80599999999998 20.3 c-0.61334 0 -1.1867 -0.11668 -1.72 -0.35002 s-1 -0.55 -1.4 -0.95 s-0.71666 -0.86666 -0.95 -1.4 s-0.35 -1.1067 -0.35 -1.72 c0 -0.25334 0.08666 -0.46668 0.26 -0.64002 s0.38668 -0.26 0.64002 -0.26 c0.24 0 0.44666 0.08666 0.62 0.26 s0.26 0.38668 0.26 0.64002 c0 0.36 0.07 0.7 0.21 1.02 s0.33 0.6 0.57 0.84 s0.52 0.43 0.84 0.57 s0.66 0.21 1.02 0.21 s0.70334 -0.07 1.03 -0.21 s0.61 -0.33 0.85 -0.57 s0.43 -0.52 0.57 -0.84 s0.21 -0.66 0.21 -1.02 c0 -0.44 -0.08666 -0.80334 -0.26 -1.09 s-0.41334 -0.53666 -0.72 -0.75 c-0.14666 -0.10666 -0.31332 -0.20332 -0.49998 -0.28998 s-0.38 -0.17666 -0.58 -0.27 c-0.2 -0.08 -0.40666 -0.16 -0.62 -0.24 s-0.43334 -0.16 -0.66 -0.24 c-0.44 -0.16 -0.88334 -0.34 -1.33 -0.54 s-0.84666 -0.45 -1.2 -0.75 s-0.64334 -0.67334 -0.87 -1.12 s-0.34 -0.99666 -0.34 -1.65 c0 -0.61334 0.11666 -1.1867 0.35 -1.72 s0.55 -1 0.95 -1.4 s0.86666 -0.71666 1.4 -0.95 s1.1067 -0.35 1.72 -0.35 s1.19 0.11666 1.73 0.35 s1.01 0.55 1.41 0.95 s0.71666 0.86666 0.95 1.4 s0.35 1.1067 0.35 1.72 c0 0.24 -0.08666 0.44666 -0.26 0.62 s-0.38668 0.26 -0.64002 0.26 c-0.24 0 -0.44666 -0.08666 -0.62 -0.26 s-0.26 -0.38 -0.26 -0.62 c0 -0.36 -0.07 -0.70334 -0.21 -1.03 s-0.33 -0.61 -0.57 -0.85 s-0.52334 -0.43 -0.85 -0.57 s-0.67 -0.21 -1.03 -0.21 s-0.7 0.07 -1.02 0.21 s-0.6 0.33 -0.84 0.57 s-0.43 0.52334 -0.57 0.85 s-0.21 0.67 -0.21 1.03 c0 0.4 0.08334 0.73334 0.25 1 s0.40332 0.5 0.70998 0.7 c0.32 0.2 0.68 0.38 1.08 0.54 l0.64 0.24 l0.66 0.24 c0.44 0.16 0.88334 0.34334 1.33 0.55 s0.84666 0.46666 1.2 0.78 s0.64334 0.70334 0.87 1.17 s0.34 1.04 0.34 1.72 c0 0.61334 -0.11666 1.1867 -0.35 1.72 s-0.55 1 -0.95 1.4 s-0.87 0.71666 -1.41 0.95 s-1.1167 0.35 -1.73 0.35 z M231.16200000000003 13.36 l-2.64 -0.000039062 l0 6.06 c0 0.24 -0.08666 0.44666 -0.26 0.62 s-0.38 0.26 -0.62 0.26 c-0.25334 0 -0.46668 -0.08666 -0.64002 -0.26 s-0.26 -0.38 -0.26 -0.62 l0 -14.02 c0 -0.24 0.08666 -0.44666 0.26 -0.62 s0.38668 -0.26 0.64002 -0.26 l3.52 0 c0.61334 0 1.19 0.11666 1.73 0.35 s1.01 0.55 1.41 0.95 s0.71666 0.86666 0.95 1.4 s0.35 1.1067 0.35 1.72 s-0.11666 1.1867 -0.35 1.72 s-0.55 1 -0.95 1.4 s-0.87 0.71666 -1.41 0.95 s-1.1167 0.35 -1.73 0.35 z M231.16200000000003 6.279999999999999 l-2.64 0 l0 5.3 l2.64 0 c0.36 0 0.70334 -0.07 1.03 -0.21 s0.61 -0.33 0.85 -0.57 s0.43 -0.52 0.57 -0.84 s0.21 -0.66 0.21 -1.02 s-0.07 -0.70334 -0.21 -1.03 s-0.33 -0.61 -0.57 -0.85 s-0.52334 -0.43 -0.85 -0.57 s-0.67 -0.21 -1.03 -0.21 z M254.32000000000002 13.36 l-0.24 -0.000039062 l0.26 -0.46 l3.62 6.06 c0.08 0.14666 0.12 0.3 0.12 0.46 c0 0.24 -0.08666 0.44666 -0.26 0.62 s-0.38 0.26 -0.62 0.26 c-0.16 0 -0.31 -0.04 -0.45 -0.12 s-0.25 -0.18666 -0.33 -0.32 l-3.88 -6.5 l-0.86 0 l0 6.06 c0 0.24 -0.08666 0.44666 -0.26 0.62 s-0.38 0.26 -0.62 0.26 c-0.25334 0 -0.46668 -0.08666 -0.64002 -0.26 s-0.26 -0.38 -0.26 -0.62 l0 -14.02 c0 -0.24 0.08666 -0.44666 0.26 -0.62 s0.38668 -0.26 0.64002 -0.26 l3.52 0 c0.61334 0 1.19 0.11666 1.73 0.35 s1.01 0.55 1.41 0.95 s0.71666 0.86666 0.95 1.4 s0.35 1.1067 0.35 1.72 s-0.11666 1.1867 -0.35 1.72 s-0.55 1 -0.95 1.4 s-0.87 0.71666 -1.41 0.95 s-1.1167 0.35 -1.73 0.35 z M254.32000000000002 6.279999999999999 l-2.64 0 l0 5.3 l2.64 0 c0.36 0 0.70334 -0.07 1.03 -0.21 s0.61 -0.33 0.85 -0.57 s0.43 -0.52 0.57 -0.84 s0.21 -0.66 0.21 -1.02 s-0.07 -0.70334 -0.21 -1.03 s-0.33 -0.61 -0.57 -0.85 s-0.52334 -0.43 -0.85 -0.57 s-0.67 -0.21 -1.03 -0.21 z M281.218 20.3 l-6.88 -0.000019531 c-0.25334 0 -0.46668 -0.08666 -0.64002 -0.26 s-0.26 -0.38 -0.26 -0.62 l0 -0.04 l0 -0.04 l0 -13.94 c0 -0.24 0.08666 -0.44666 0.26 -0.62 s0.38668 -0.26 0.64002 -0.26 l6.88 0 c0.25334 0 0.46668 0.08666 0.64002 0.26 s0.26 0.38 0.26 0.62 c0 0.25334 -0.08666 0.46334 -0.26 0.63 s-0.38668 0.25 -0.64002 0.25 l-6 0 l0 5.1 l5.06 0 c0.24 0 0.44666 0.08334 0.62 0.25 s0.26 0.37666 0.26 0.63 c0 0.24 -0.08666 0.44666 -0.26 0.62 s-0.38 0.26 -0.62 0.26 l-5.06 0 l0 5.38 l6 0 c0.25334 0 0.46668 0.08666 0.64002 0.26 s0.26 0.38668 0.26 0.64002 c0 0.24 -0.08666 0.44666 -0.26 0.62 s-0.38668 0.26 -0.64002 0.26 z M279.858 3.66 c-0.22666 0 -0.42 -0.08002 -0.58 -0.24002 l-1.3 -1.34 l-1.3 1.34 c-0.16 0.16 -0.35334 0.24 -0.58 0.24 s-0.41666 -0.08 -0.57 -0.24 s-0.23 -0.35334 -0.23 -0.58 s0.08 -0.42 0.24 -0.58 l1.88 -1.92 c0.13334 -0.16 0.32 -0.24 0.56 -0.24 c0.22666 0 0.42 0.08 0.58 0.24 l1.88 1.92 c0.14666 0.17334 0.22 0.36668 0.22 0.58002 c0 0.22666 -0.07666 0.42 -0.23 0.58 s-0.34334 0.24 -0.57 0.24 z M304.076 6.279999999999999 l-3.24 0 l0 13.14 c0 0.24 -0.08666 0.44666 -0.26 0.62 s-0.38 0.26 -0.62 0.26 c-0.25334 0 -0.46668 -0.08666 -0.64002 -0.26 s-0.26 -0.38 -0.26 -0.62 l0 -13.14 l-3.24 0 c-0.24 0 -0.44666 -0.08334 -0.62 -0.25 s-0.26 -0.37666 -0.26 -0.63 c0 -0.24 0.08666 -0.44666 0.26 -0.62 s0.38 -0.26 0.62 -0.26 l8.26 0 c0.24 0 0.44666 0.08666 0.62 0.26 s0.26 0.38 0.26 0.62 c0 0.25334 -0.08666 0.46334 -0.26 0.63 s-0.38 0.25 -0.62 0.25 z"></path>
    </g>
</svg>
